<svg width="48" height="48" viewBox="0 0 48 48" fill="none" xmlns="http://www.w3.org/2000/svg">
<path d="M26.8894 39.9932C25.3687 39.9932 23.9349 39.6021 22.588 38.8418C21.2411 38.0597 20.2417 36.8866 19.5466 35.279L17.9172 39.4283H16.0055V10.5566H11.7041V7.99316H20.5024V19.746C21.2193 18.7033 22.11 17.8778 23.1962 17.2912C24.2825 16.7046 25.4556 16.4005 26.6939 16.4005C29.6049 16.4005 31.9294 17.5084 33.6673 19.7026C35.427 21.8968 36.296 24.7427 36.296 28.1968C36.296 30.391 35.9049 32.3896 35.1229 34.171C34.3408 35.9524 33.2329 37.3645 31.7991 38.4073C30.3435 39.4718 28.7142 39.9932 26.8894 39.9932ZM26.0204 18.7685C25.108 18.7685 24.2825 19.0509 23.5221 19.594C22.7835 20.1371 22.1969 20.854 21.7624 21.723C21.328 22.5919 21.0238 23.4826 20.7849 24.4385C20.5676 25.3944 20.459 26.3068 20.459 27.241C20.459 29.131 20.6762 30.8472 21.1107 32.3896C21.5452 33.9321 22.1969 35.1704 23.0442 36.0828C23.8914 37.0169 24.869 37.4731 25.9987 37.4731C27.1283 37.4731 28.1277 37.0387 28.9966 36.1262C29.8439 35.2355 30.4739 34.1276 30.8866 32.7807C31.2994 31.4338 31.4949 30.0217 31.4949 28.4792C31.4949 27.2627 31.3863 26.1113 31.1908 25.0033C30.9953 23.8954 30.6911 22.8744 30.2784 21.9185C29.8656 20.9626 29.3008 20.2023 28.5621 19.6157C27.8452 19.0509 26.998 18.7685 26.0204 18.7685Z" fill="black"/>
</svg>
