<svg width="48" height="48" viewBox="0 0 48 48" fill="none" xmlns="http://www.w3.org/2000/svg">
<g clip-path="url(#clip0_30_47057)">
<path d="M33.012 10.9426C34.8337 12.0717 37.078 14.0194 38.4001 16.8368C38.4675 17.0028 38.5409 17.1656 38.6124 17.3288C38.6515 17.4048 38.6857 17.3999 38.6226 17.2575C38.5177 16.9761 38.4118 16.6944 38.3004 16.421L38.2874 16.3862C38.2014 16.1364 38.2359 16.0785 38.2874 16.1782C38.3381 16.2892 38.6894 17.0512 39.0944 18.1074C39.1688 18.2722 39.327 18.764 39.3315 18.7797C39.4563 19.2212 39.5493 19.6649 39.5493 19.6649C39.6763 20.4449 39.6763 20.7434 39.4365 20.2734C39.2362 19.7456 38.9516 19.0704 38.9504 19.0676C38.8676 18.8774 38.7716 18.6521 38.66 18.3874C37.9178 16.748 36.9386 15.2266 35.7689 13.8726L35.1537 13.2306C34.9412 12.9916 34.9733 12.9192 35.141 13.061C35.3832 13.3004 35.5968 13.4989 35.778 13.6664C35.8289 13.7119 35.8608 13.731 35.8441 13.682L35.6317 13.4164C35.3196 13.0308 34.911 12.648 34.6886 12.4483C33.8492 11.6709 33.1886 11.2388 33.1886 11.2388C32.737 10.9201 32.6043 10.7076 33.012 10.9426ZM33.2567 34.8581C33.7426 34.3936 34.6027 33.5254 35.5245 31.86C35.5393 31.8334 35.5494 31.8237 35.5374 31.8093C35.5374 31.8093 35.5317 31.7943 35.4841 31.8194C35.4299 31.8479 35.3647 31.9517 35.3225 31.9999C35.2588 32.0728 34.1724 33.8418 33.2305 34.7701C33.0228 34.9748 32.9416 35.0514 32.9798 35.0514C33.018 35.0514 33.0944 35.0132 33.2567 34.8581ZM39.5803 28.2416C39.3206 29.5166 38.8422 30.9497 38.2367 32.1285C38.1658 32.2582 38.1077 32.2456 38.2077 32.0058C38.3243 31.7667 38.4347 31.5185 38.5291 31.2464C38.8369 30.4104 39.1142 29.4928 39.2996 28.6088C39.3496 28.2879 39.2965 28.3145 39.2569 28.4646C39.2034 28.6755 39.146 28.8852 39.0842 29.0956L39.0821 29.1017C39.0362 29.2568 38.9883 29.4111 38.9389 29.5645L38.8378 29.8707C38.5593 30.855 38.1962 31.8072 37.7511 32.7068C37.6339 32.949 37.4726 33.0692 37.8296 32.2271C37.9595 31.905 38.2608 31.2888 38.5794 30.3327C38.8981 29.3767 38.9512 29.1908 38.9819 28.9871C39.0244 28.6819 39.0099 28.5378 38.9554 28.7467C38.3181 31.2923 37.3314 33.1989 35.7595 34.981C35.7458 34.9974 35.7379 35.0067 35.7397 35.0037C35.3589 35.4402 35.2783 35.4983 35.0792 35.6753C35.0071 35.7394 34.9612 35.6718 35.0679 35.5536C35.198 35.4095 35.2296 35.3749 35.4697 35.0811C35.5646 34.965 35.622 34.8849 35.7469 34.7247C37.3405 32.6829 38.4138 30.4198 38.9759 27.6802C39.1371 26.6415 38.9423 26.7804 38.8509 27.264C38.5868 28.9135 37.9284 30.8368 37.1748 32.2402C36.6875 33.1952 36.1872 33.9206 35.9096 34.292C35.8262 34.4072 35.7553 34.4942 35.6993 34.5587C35.6662 34.5966 35.6179 34.6481 35.6179 34.6481C35.5721 34.694 35.5724 34.6779 35.607 34.6154L35.9517 34.0964C36.2224 33.6661 36.3349 33.5374 36.6779 32.8151C36.9686 32.1503 37.4139 31.1232 37.5595 30.7349C37.5714 30.7031 37.5819 30.6742 37.5819 30.6742C37.7276 30.2729 37.8257 29.9713 37.85 29.8884C38.029 29.2786 38.4998 27.8099 38.5202 25.5692C38.5202 25.5692 38.5078 24.8363 38.4998 24.5748C38.4998 24.5797 38.4997 24.5843 38.4997 24.5891C38.4949 24.3563 38.4863 24.2065 38.4783 24.112C38.4582 23.8133 38.4252 23.5128 38.3771 23.2148C38.2435 22.458 38.017 21.6128 37.711 20.7759C37.6765 20.7194 37.6743 20.7571 37.6891 20.8032C38.0771 21.9994 38.2962 23.2585 38.3843 24.5381C38.4201 25.3005 38.3952 25.7898 38.3952 25.7898C38.3933 25.8717 38.3872 26.1011 38.3864 26.1174C38.2604 28.5827 37.4757 30.806 36.7498 32.2793L36.7473 32.2851C35.249 35.268 31.696 38.2708 27.8707 39.2508L27.4789 39.3352C27.2877 39.3767 27.3196 39.2821 27.5585 39.2026L27.8213 39.1295C31.1598 38.1121 34.3274 35.6439 35.9128 32.7853C36.017 32.5968 36.1174 32.4061 36.2141 32.2137C36.2425 32.1652 36.2423 32.1084 36.198 32.1733C36.198 32.1733 34.704 34.6962 32.6233 36.2187C31.2712 37.208 29.8723 38.0172 28.2809 38.5653C28.0548 38.572 28.4843 38.3973 28.6062 38.344C29.53 37.9391 30.4137 37.4434 31.2411 36.8669C31.5387 36.6594 31.8385 36.4469 32.1321 36.2253C32.6426 35.8401 33.1347 35.4271 33.5655 34.9644C34.3079 34.1671 34.9107 33.2516 35.4784 32.3252C35.5225 32.2531 35.5665 32.181 35.6104 32.1087C36.4752 30.6823 37.0993 29.0994 37.4364 27.4711C37.4756 27.2752 37.5157 27.0555 37.549 26.8351C37.6025 26.4794 37.6493 26.0732 37.6817 25.7697L37.6914 25.6538C37.7208 25.2983 37.7331 24.9395 37.7339 24.5864C37.6739 23.747 37.5172 23.9858 37.5119 24.128C37.5826 26.3372 37.1198 28.6137 36.149 30.6531C35.8707 31.2357 35.7379 31.4481 35.7379 31.4481C35.5944 31.6567 35.5104 31.7519 35.8176 31.1029C35.8176 31.1029 36.1304 30.4841 36.3674 29.7972C36.3674 29.7972 36.5645 29.2612 36.6493 28.8644C36.7876 28.2182 36.9407 27.5803 37.0045 27.1347C37.0126 26.9601 36.9595 27.0132 36.9083 27.1619C36.807 27.5935 36.4401 28.925 36.4401 28.925C36.1147 29.9035 35.6826 30.8523 35.1572 31.7432C34.9606 32.0905 34.5115 32.7031 34.2389 33.118C34.2176 33.1503 34.1955 33.1807 34.1711 33.2107L33.974 33.4522C32.8375 34.8589 31.4317 36.0342 29.8062 36.8264C29.8062 36.8264 29.669 36.8885 29.5165 36.9577C29.3812 37.0191 29.3004 36.9634 29.4016 36.8529C29.5774 36.6606 30.0224 36.4205 30.3147 36.2425C30.6604 36.032 30.9956 35.804 31.3195 35.561C31.9751 35.0693 32.5848 34.5164 33.1412 33.9147C33.208 33.8426 33.274 33.7695 33.3392 33.6959L33.7236 33.2412C34.4326 32.3654 35.0237 31.4133 35.4467 30.4396C35.5649 30.1017 35.5705 30.0309 35.4744 30.2016C35.2156 30.8033 34.9084 31.3878 34.5583 31.9468C34.4632 32.0855 34.3655 32.175 34.5953 31.797C35.8684 29.5 36.7272 26.8857 36.7891 24.4466C36.8127 23.7388 36.7727 23.049 36.6771 22.3819L36.5683 21.7492C36.2252 20.0156 35.529 18.4523 34.7087 17.1492C34.5695 16.9484 34.5246 16.9926 34.5648 17.0764C34.6426 17.2218 34.7181 17.3688 34.7909 17.5178C34.8987 17.7154 35.2073 18.3074 35.4391 19.0163C35.5132 19.2428 35.7849 20.044 35.9511 21.0512C35.9605 21.101 35.9702 21.1647 35.9795 21.2324C35.9999 21.3701 36.0182 21.5109 36.0334 21.6543C36.0363 21.6975 36.0089 21.7711 35.9769 21.6489L35.8819 21.0521L35.8308 20.7692C35.8288 20.7559 35.8267 20.7436 35.8267 20.7436C35.745 20.375 35.6147 19.8919 35.4139 19.3766C35.0282 18.3871 34.6342 17.8182 34.5568 17.7109C34.5568 17.7109 32.5255 14.3973 30.1339 13.4183C30.0138 13.3691 30.0889 13.4306 30.1221 13.4531C30.1553 13.4755 30.9958 14.0444 30.9958 14.0444C32.3387 14.9832 33.377 16.2551 33.377 16.2551C33.377 16.2551 34.0649 17.1342 34.6756 18.1965C34.8676 18.5305 35.0203 18.8381 35.1393 19.103C35.3396 19.6837 35.2068 19.604 35.136 19.4354C34.1615 17.2742 32.6064 15.4936 30.8623 14.4116C29.7171 13.6809 28.039 12.8382 26.2303 12.517C25.4849 12.3755 24.7296 12.3249 24.0142 12.3486L24.0262 12.3463C24.0262 12.3463 22.7254 12.3807 21.6366 12.6728C21.2293 12.8047 21.2772 12.8274 21.4065 12.8304C21.4841 12.8145 22.0736 12.6963 22.8695 12.5982C22.9378 12.5932 23.052 12.639 22.6988 12.7259L22.4005 12.7815C22.4005 12.7815 22.0224 12.8557 21.6719 12.9304C21.2749 13.0214 20.9073 13.1077 20.3966 13.2666L20.2378 13.3236C18.3411 14.1253 16.7357 15.0124 15.3344 16.5669C12.943 19.2195 11.9687 22.9748 12.6033 26.4721C12.9115 28.1714 13.5996 29.8006 14.6387 31.1827C15.3274 32.0989 16.1818 32.8813 17.0986 33.5646C17.5606 33.9088 18.0405 34.2285 18.5323 34.5286C18.7364 34.6533 19.0035 34.8813 19.235 34.9401C19.4334 34.9905 19.6237 34.9572 19.3792 34.7676L18.3702 34.0241C18.2247 33.8732 18.3108 33.8505 18.6156 33.9696C18.663 33.9881 20.1494 34.741 20.4129 34.8468C20.7186 34.9694 21.3529 35.2728 21.4524 35.1506C21.4779 35.1177 21.4809 35.0284 21.3709 34.9536C21.2579 34.8765 21.2363 34.7668 21.3444 34.7941C21.5734 34.8645 21.7799 34.9279 21.8624 34.9504C21.9449 34.973 22.3801 35.0862 22.3801 35.0862C22.3801 35.0862 22.0963 35.0172 22.378 35.0862C22.6596 35.1554 23.5101 35.4474 24.1002 35.6846C24.6257 35.8946 25.1329 36.2292 25.3514 36.6663C25.5101 36.9837 25.5962 37.2781 25.5747 37.5932C25.5397 38.1078 25.6102 38.0357 25.5 38.4928C25.5 38.4928 25.4703 38.7472 25.4578 38.8307C25.4153 39.0185 25.3586 39.1906 25.2061 39.3415C24.774 39.769 24.6257 39.8018 24.6257 39.8018C24.5196 39.8557 24.3936 39.8966 24.2243 39.9169C23.8934 39.9603 22.8521 39.9805 22.5234 39.9935C22.1915 40.0091 21.7775 39.9335 21.4456 39.8737C21.0763 39.8072 20.6068 39.6685 20.2438 39.5532C19.784 39.4072 18.5708 38.7692 18.2919 38.6517C18.1389 38.5872 17.0001 38.0768 17.0001 38.0768C12.3689 36.016 9.05849 31.761 8.28749 26.7511C8.15684 25.9022 8.10034 25.0473 8.12465 24.1989C8.08119 19.9837 9.59183 16.0187 12.0439 12.9977C12.1065 12.9309 12.1029 13.018 11.9966 13.1509C11.9966 13.1509 11.5639 13.7673 11.122 14.5372C10.8534 15.0501 10.6171 15.5679 10.4116 16.0807C10.3934 16.1372 10.4298 16.1516 10.4572 16.0874C11.4988 13.96 13.0295 12.0998 14.9003 10.699C14.9132 10.6887 14.9249 10.6795 14.9359 10.6708C14.9975 10.628 15.0204 10.6602 14.8913 10.7873L14.864 10.808C14.7951 10.8559 14.6454 10.9819 14.5486 11.0648C13.8677 11.6067 13.0675 12.449 12.9033 12.6238C12.3362 13.2783 11.83 13.9569 11.3949 14.701C11.2798 14.9001 11.1734 15.1004 11.0719 15.302C11.0267 15.4352 11.0572 15.4211 11.1416 15.302C12.0716 13.7969 13.2184 12.5029 14.6235 11.38L14.6947 11.3188C16.6308 9.69609 19.0119 8.65304 21.5141 8.23597C24.2205 7.78494 26.5633 8.05398 27.942 8.34882C27.942 8.34882 28.9005 8.59207 29.972 9.02544C30.0833 9.07189 30.7614 9.36375 30.8636 9.45569C30.8916 9.47946 30.8662 9.49019 30.835 9.47634C29.4846 8.81833 28.2617 8.52376 26.8012 8.30713C26.3752 8.24384 25.7792 8.18476 25.3013 8.21139C25.0873 8.22741 25.0092 8.26449 25.0964 8.27426C25.1582 8.27644 25.3408 8.27698 25.3408 8.27698C26.1329 8.30374 26.8871 8.47921 27.6291 8.66975C28.0286 8.7564 28.7801 9.00806 28.7801 9.00806C28.8599 9.03467 28.913 9.08778 28.789 9.06143C28.3818 8.95496 28.0605 8.89262 28.0605 8.89262C26.6822 8.60972 25.4075 8.50352 24.5455 8.60592C24.3699 8.63606 24.4867 8.66133 24.509 8.66133C25.6668 8.66161 26.4975 8.80013 26.4975 8.80013C27.9774 9.04745 29.4244 9.56733 30.7667 10.2418C30.8222 10.2683 30.9147 10.3477 30.7155 10.2623C29.7363 9.77825 28.5594 9.40449 27.9263 9.2479C27.4746 9.14278 27.0188 9.06062 26.5612 9.00222L25.9515 8.9377C25.8428 8.92956 25.3929 8.88121 25.2785 8.87931C25.2024 8.87795 25.1265 8.87347 25.0509 8.86559C24.5826 8.81751 24.1101 8.84196 23.6375 8.83517C23.5862 8.83443 23.5348 8.83558 23.4835 8.83843C23.1756 8.85554 22.8688 8.85554 22.5628 8.89071C22.5628 8.89071 21.7615 8.99978 21.4202 9.06238C21.2754 9.0856 21.2116 9.11426 21.2116 9.11426C21.0917 9.14591 21.2266 9.15351 21.2913 9.14088L21.3727 9.12838C21.6491 9.08887 21.9258 9.056 22.203 9.0325C22.8855 8.96147 23.5582 8.93445 24.2023 8.92793C24.2023 8.92793 25.2485 8.95183 25.9995 9.0996C26.2654 9.17755 26.0386 9.17063 25.859 9.14088C25.6447 9.10706 25.3976 9.08941 25.1841 9.0803C23.6356 9.04296 22.0644 9.20756 21.3015 9.30344C21.1815 9.31852 21.0625 9.33795 20.9439 9.36171C20.4393 9.46303 19.0077 9.76765 18.1716 10.1179L17.9718 10.2031C17.8921 10.2297 17.8777 10.2839 17.9187 10.2828L18.2826 10.1508C19.7439 9.63741 21.3003 9.33672 22.8536 9.27941C22.8536 9.27941 26.3158 9.00928 29.0939 10.1421C29.3421 10.23 29.8835 10.4391 30.5286 10.7967C30.586 10.8404 30.6177 10.9051 30.3736 10.7873L30.2547 10.7296C28.639 9.96037 26.8906 9.51069 25.1374 9.41427C25.012 9.40816 24.8875 9.40462 24.7632 9.40273C24.7632 9.40273 24.0797 9.37991 23.6549 9.40639C23.5408 9.41128 23.4832 9.43695 23.5582 9.43396C23.5815 9.43355 23.6049 9.43328 23.6283 9.43315C25.7035 9.4159 27.5576 9.83814 29.4736 10.664C31.9642 11.7375 34.1424 13.6065 35.7575 15.7669L36.8282 17.4531C36.9248 17.6331 37.0155 17.8145 37.103 17.9974L37.3171 18.4038C38.0966 20.1114 38.449 22.2039 38.7024 23.8686C38.75 24.1653 38.8184 24.092 38.7915 23.8164L38.7438 23.4018C38.7373 23.1708 38.5529 21.9144 38.2367 20.6667C38.2303 20.6467 38.0178 19.7726 37.8377 19.2815C37.5563 18.5143 37.2893 17.8595 37.1536 17.5717C36.9581 17.1978 36.7346 16.6733 36.5195 16.3236C36.4952 16.2841 36.4213 16.1539 36.3692 16.0613C35.9516 15.3182 34.5755 13.5917 34.5755 13.5917C34.4467 13.4657 34.1791 13.053 34.3916 13.2444C35.7097 14.4316 36.8184 15.856 37.5892 17.5006C37.6664 17.6909 37.7517 17.8767 37.8323 18.0637C37.8624 18.1168 37.8661 18.0986 37.862 18.0637C37.5746 17.234 37.2203 16.4135 36.8059 15.6252C36.659 15.4064 36.4083 14.8247 36.6939 15.1956C36.986 15.594 37.8967 17.1748 37.8967 17.1748C39.6247 20.3833 40.3371 24.2654 39.5803 28.2416ZM20.3578 8.96568C21.4881 8.6381 22.7912 8.48165 23.9816 8.44485L24.1946 8.44525C24.2694 8.44553 24.3452 8.42379 24.2049 8.40003C21.2138 8.27115 18.1996 9.12961 15.8047 10.7613C15.6926 10.8353 15.584 10.9116 15.4742 10.9902C15.1544 11.2282 14.8381 11.4778 14.5408 11.7324C14.2434 11.987 12.5012 13.6023 11.5983 15.1956C10.954 16.3327 10.5937 17.4018 10.4402 17.9211L10.4393 17.9241C10.4193 18.0606 10.5095 18.0637 10.5626 17.8778L10.563 17.8767L10.5676 17.8692L11.0229 16.7713C11.8653 14.8925 13.0292 13.4431 13.7866 12.6178C15.1867 11.2697 17.2827 9.85675 20.3578 8.96568Z" fill="black"/>
</g>
<defs>
<clipPath id="clip0_30_47057">
<rect width="32" height="32" fill="white" transform="translate(8 7.99561)"/>
</clipPath>
</defs>
</svg>
