<svg width="48" height="48" viewBox="0 0 48 48" fill="none" xmlns="http://www.w3.org/2000/svg">
<path d="M34.6655 7.99146H13.3339C10.4011 7.99146 8 10.3914 8 13.3254V34.6575C8 37.5891 10.4011 39.9896 13.3339 39.9896H34.6661C37.5989 39.9896 40 37.5897 40 34.6575V13.3254C39.9994 10.3914 37.5983 7.99146 34.6655 7.99146ZM34.1807 32.4765C34.1807 33.4088 33.4174 34.1697 32.4845 34.1697H15.5137C14.5814 34.1697 13.8175 33.4082 13.8175 32.4765V15.5064C13.8175 14.5741 14.5814 13.8102 15.5137 13.8102H32.4845C33.4174 13.8102 34.1807 14.5741 34.1807 15.5064V32.4765ZM28.3643 27.3844C28.3643 27.9191 27.9277 28.354 27.396 28.354H20.6082C20.0747 28.354 19.6399 27.9185 19.6399 27.3844V20.5973C19.6399 20.0638 20.0747 19.6283 20.6082 19.6283H27.3954C27.9277 19.6283 28.3637 20.0644 28.3637 20.5973L28.3643 27.3844Z" fill="black"/>
</svg>
