<svg width="16" height="16" viewBox="0 0 16 16" fill="none" xmlns="http://www.w3.org/2000/svg">
<path fill-rule="evenodd" clip-rule="evenodd" d="M3.63264 13.0272C4.60672 11.872 6.17935 11.1869 7.93775 11.1869C9.74208 11.1869 11.33 11.8926 12.2988 13.0898C11.1369 14.0725 9.63755 14.6684 8.00033 14.6684C6.32916 14.6684 4.80379 14.0465 3.63264 13.0272ZM7.93775 9.82265C6.48296 9.82265 5.29916 8.63218 5.29916 7.16874C5.29916 5.70596 6.48296 4.51617 7.93775 4.51617C9.3932 4.51617 10.577 5.70596 10.577 7.16874C10.577 8.63218 9.3932 9.82265 7.93775 9.82265ZM8.00033 1.33161C11.6769 1.33161 14.6684 4.32308 14.6684 7.99967C14.6684 9.55566 14.1291 10.9851 13.2322 12.121C12.5092 11.2774 11.5424 10.6456 10.4325 10.2654C11.3314 9.53435 11.9086 8.41846 11.9086 7.16874C11.9086 4.97224 10.1276 3.18455 7.93775 3.18455C5.74857 3.18455 3.96754 4.97224 3.96754 7.16874C3.96754 8.41779 4.54346 9.53302 5.44164 10.2641C4.36703 10.6336 3.4289 11.2455 2.71383 12.0484C1.85094 10.9246 1.33161 9.52303 1.33161 7.99967C1.33161 4.32308 4.32308 1.33161 8.00033 1.33161ZM8.00033 0C3.5887 0 0 3.5887 0 7.99967C0 12.4106 3.5887 16 8.00033 16C12.4113 16 16 12.4106 16 7.99967C16 3.5887 12.4113 0 8.00033 0Z" fill="#70747D"/>
</svg>

