<svg width="16" height="16" viewBox="0 0 16 16" fill="none" xmlns="http://www.w3.org/2000/svg">
<g clip-path="url(#clip0_682_96675)">
<path d="M7.73109 16C7.52941 16 7.39496 15.9328 7.2605 15.7983L0.201681 8.7395C-0.0672269 8.47059 -0.0672269 8.06723 0.201681 7.79832L7.79832 0.201681C7.93277 0.0672269 8.06723 0 8.26891 0H15.3277C15.7311 0 16 0.268908 16 0.672269V7.73109C16 7.93277 15.9328 8.06723 15.7983 8.20168L8.20168 15.7983C8.13445 15.9328 7.93277 16 7.73109 16ZM1.61345 8.26891L7.73109 14.3866L14.6555 7.46219V1.34454H8.53782L1.61345 8.26891ZM11.7647 5.51261C11.4286 5.51261 11.0924 5.37815 10.8235 5.10924C10.5546 4.84034 10.4202 4.5042 10.4202 4.16807C10.4202 3.83193 10.5546 3.4958 10.8235 3.22689C11.3613 2.68908 12.1681 2.68908 12.7059 3.22689C13.2437 3.76471 13.2437 4.57143 12.7059 5.10924C12.5042 5.37815 12.1681 5.51261 11.7647 5.51261ZM11.7647 4.16807C11.8319 4.16807 11.8319 4.16807 11.7647 4.16807V4.16807Z" fill="#70747D"/>
</g>
<defs>
<clipPath id="clip0_682_96675">
<rect width="16" height="16" fill="white"/>
</clipPath>
</defs>
</svg>

