<svg width="16" height="16" viewBox="0 0 16 16" fill="none" xmlns="http://www.w3.org/2000/svg">
<path fill-rule="evenodd" clip-rule="evenodd" d="M0.666667 4.33333C0.266667 4.33333 0 4.06667 0 3.66667V2.33333C0 1.06667 1.06667 0 2.4 0H3.73333C4.13333 0 4.4 0.266667 4.4 0.666667C4.4 1.06667 4.13333 1.33333 3.73333 1.33333H2.4C1.8 1.33333 1.33333 1.8 1.33333 2.33333V3.66667C1.33333 4.06667 1.06667 4.33333 0.666667 4.33333ZM3.86667 16H2.4C1.06667 16 0 14.9333 0 13.6667V12.3333C0 11.9333 0.266667 11.6667 0.666667 11.6667C1.06667 11.6667 1.33333 11.9333 1.33333 12.3333V13.6667C1.33333 14.2 1.8 14.6667 2.4 14.6667H3.86667C4.26667 14.6667 4.53333 14.9333 4.53333 15.3333C4.53333 15.7333 4.26667 16 3.86667 16ZM14.6667 3.66667C14.6667 4.06667 14.9333 4.33333 15.3333 4.33333C15.7333 4.33333 16 4 16 3.66667V2.33333C16 1.06667 14.9333 0 13.6 0H12.2667C11.8667 0 11.6 0.266667 11.6 0.666667C11.6 1.06667 11.8667 1.33333 12.2667 1.33333H13.6C14.2 1.33333 14.6667 1.8 14.6667 2.33333V3.66667ZM13.6 16H12.4C12 16 11.7333 15.7333 11.7333 15.3333C11.7333 14.9333 12 14.6667 12.4 14.6667H13.6C14.2 14.6667 14.6667 14.2 14.6667 13.6667V12.2667C14.6667 11.8667 14.9333 11.6 15.3333 11.6C15.7333 11.6 16 11.8667 16 12.2667V13.6667C16 14.9333 14.9333 16 13.6 16ZM6.86667 6.46667C6.86667 5.86667 7.4 5.33333 8 5.33333C8.6 5.33333 9.13333 5.86667 9.13333 6.46667C9.13333 7.06667 8.6 7.6 8 7.6C7.4 7.6 6.86667 7.06667 6.86667 6.46667ZM9.85973 8.03567C10.2357 7.61606 10.4667 7.06853 10.4667 6.46667C10.4667 5.06667 9.33333 4 8 4C6.66667 4 5.53333 5.06667 5.53333 6.4C5.53333 7.0408 5.77077 7.61177 6.15615 8.04259C4.92381 8.67154 4.06667 9.9072 4.06667 11.3333H5.4C5.4 10 6.53333 8.93333 8 8.93333C9.4 8.93333 10.6 10 10.6 11.3333H11.9333C11.9333 9.90195 11.1018 8.66245 9.85973 8.03567Z" fill="#70747D"/>
</svg>

