<svg width="16" height="16" viewBox="0 0 16 16" fill="none" xmlns="http://www.w3.org/2000/svg">
<path fill-rule="evenodd" clip-rule="evenodd" d="M3.83145 10.4839C3.96075 10.6295 4.14335 10.7082 4.32996 10.7082C4.40927 10.7082 4.48991 10.6942 4.56655 10.6648C4.82581 10.566 4.99642 10.3176 4.99642 10.0405V7.21606H3.66351V8.28508L2.7498 7.25613C2.52787 7.03311 2.20597 6.90557 1.86741 6.90557H1.33291V1.33544H8.28804V4.01835H9.62095V0.873379C9.62095 0.399965 9.22175 0 8.74923 0H0.87239C0.399873 0 0 0.399965 0 0.873379V7.36697C0 7.84105 0.399873 8.24101 0.87239 8.24101L1.84275 8.24168L3.83145 10.4839ZM13.95 13.5087L13.924 13.5308C13.932 13.5254 13.9407 13.5174 13.95 13.5087ZM10.1898 12.2134H7.71196V6.64322H14.6671V12.2134H13.8913C13.5528 12.2134 13.2309 12.3409 13.0469 12.5279L11.3948 13.9387L11.3708 13.3966C11.3708 12.7442 10.841 12.2134 10.1898 12.2134ZM10.5251 15.9446C10.6104 15.982 10.701 16 10.791 16C10.9463 16 11.1002 15.9452 11.2235 15.8404L13.9027 13.5488H15.1276C15.6001 13.5488 16 13.1488 16 12.6747V6.18183C16 5.70775 15.6001 5.30778 15.1276 5.30778H7.25144C6.77825 5.30778 6.37905 5.70775 6.37905 6.18183V12.6747C6.37905 13.1488 6.77825 13.5488 7.25144 13.5488H10.0439L10.1252 15.3623C10.1365 15.6167 10.2918 15.8431 10.5251 15.9446Z" fill="#70747D"/>
</svg>

