<svg width="16" height="16" viewBox="0 0 16 16" fill="none" xmlns="http://www.w3.org/2000/svg">
<path fill-rule="evenodd" clip-rule="evenodd" d="M2 0.666667V5.86917C0.835441 6.14342 0 7.19799 0 8.4C0 9.67612 0.908452 10.6999 2.06667 10.9444V15.3333C2.06667 15.7333 2.33333 16 2.73333 16C3.13333 16 3.4 15.7333 3.4 15.3333V10.8709C4.40989 10.5343 5.14664 9.57395 5.2 8.4C5.2 7.22361 4.428 6.26167 3.4 5.92698V0.666667C3.4 0.266667 3.13333 0 2.73333 0C2.33333 0 2 0.266667 2 0.666667ZM12.8667 0.666667V8.31833C11.6675 8.55551 10.8 9.58352 10.8 10.8667C10.8 12.1428 11.7085 13.1666 12.8667 13.411V15.3333C12.8667 15.7333 13.1333 16 13.5333 16C13.9333 16 14.2 15.7333 14.2 15.3333V13.3477C15.259 13.0206 16 12.0526 16 10.8667C16 9.68075 15.259 8.71277 14.2 8.38564V0.666667C14.2 0.266667 13.9333 0 13.5333 0C13.1333 0 12.8667 0.266667 12.8667 0.666667ZM10.6 4.4C10.6 5.62673 9.76051 6.62026 8.66667 6.91251V15.3333C8.66667 15.7333 8.4 16 8 16C7.6 16 7.33333 15.7333 7.33333 15.3333V6.91251C6.23949 6.62026 5.4 5.62673 5.4 4.4C5.4 3.22106 6.20369 2.18394 7.33333 1.88582V0.666667C7.33333 0.266667 7.6 0 8 0C8.4 0 8.66667 0.266667 8.66667 0.666667V1.88162C9.79631 2.16621 10.6 3.16492 10.6 4.4ZM12.1333 10.9333C12.1333 10.2 12.7333 9.66667 13.4 9.66667C14.1333 9.66667 14.6667 10.2 14.6667 10.9333C14.6667 11.6667 14.1333 12.2 13.4 12.2C12.6667 12.2 12.1333 11.6667 12.1333 10.9333ZM6.73333 4.46667C6.73333 3.73333 7.33333 3.2 8 3.2C8.66667 3.2 9.26667 3.66667 9.26667 4.4C9.26667 5.13333 8.66667 5.66667 8 5.66667C7.33333 5.66667 6.73333 5.2 6.73333 4.46667ZM1.33333 8.46667C1.33333 7.73333 1.93333 7.2 2.6 7.2C3.26667 7.2 3.86667 7.73333 3.86667 8.46667C3.86667 9.2 3.33333 9.73333 2.6 9.73333C1.86667 9.73333 1.33333 9.2 1.33333 8.46667Z" fill="#707174"/>
</svg>
