<svg width="14" height="14" viewBox="0 0 14 14" fill="none" xmlns="http://www.w3.org/2000/svg">
<g clip-path="url(#clip0_908_87649)">
<path d="M6.99967 3.50091C6.99967 3.50091 6.18942 0.584245 3.88876 0.584245C3.48916 0.571662 3.10089 0.718163 2.80921 0.991584C2.51752 1.265 2.34625 1.643 2.33301 2.04258C2.34625 2.44216 2.51752 2.82015 2.80921 3.09357C3.10089 3.36699 3.48916 3.51349 3.88876 3.50091H6.99967ZM6.99967 3.50091H10.1106C10.5102 3.51349 10.8985 3.36699 11.1901 3.09357C11.4818 2.82015 11.6531 2.44216 11.6663 2.04258C11.6531 1.643 11.4818 1.265 11.1901 0.991584C10.8985 0.718163 10.5102 0.571662 10.1106 0.584245C7.80993 0.584245 6.99967 3.50091 6.99967 3.50091ZM6.99967 3.50091V13.4176M12.2497 7.58424V12.2509C12.2497 12.5603 12.1268 12.8571 11.908 13.0759C11.6892 13.2947 11.3924 13.4176 11.083 13.4176H2.91634C2.60692 13.4176 2.31018 13.2947 2.09138 13.0759C1.87259 12.8571 1.74967 12.5603 1.74967 12.2509V7.58424M0.583008 3.50091H13.4163V5.83424H0.583008V3.50091Z" stroke="black" stroke-miterlimit="10" stroke-linecap="square"/>
</g>
<defs>
<clipPath id="clip0_908_87649">
<rect width="14" height="14" fill="white"/>
</clipPath>
</defs>
</svg>
