<svg width="16" height="16" viewBox="0 0 16 16" fill="none" xmlns="http://www.w3.org/2000/svg">
<path fill-rule="evenodd" clip-rule="evenodd" d="M0 8C0 12.4 3.6 16 8 16C12.4 16 16 12.4 16 8C16 3.6 12.4 0 8 0C3.6 0 0 3.6 0 8ZM1.33333 8C1.33333 4.33333 4.33333 1.33333 8 1.33333C11.6667 1.33333 14.6667 4.33333 14.6667 8C14.6667 11.6667 11.6667 14.6667 8 14.6667C4.33333 14.6667 1.33333 11.6667 1.33333 8ZM7 11.0667H8.46667V12.5333H7V11.0667ZM7.06667 9.93333H8.4H8.46667C8.46667 9.70301 8.4985 9.56817 8.51817 9.48484C8.52697 9.44757 8.53333 9.4206 8.53333 9.4C8.53333 9.33333 8.6 9.2 8.66667 9.13333C8.73333 9.06667 8.86667 8.93333 9.13333 8.73333C9.33333 8.53333 9.53333 8.4 9.73333 8.26667C9.80267 8.19733 9.87201 8.136 9.93857 8.07714C10.064 7.9662 10.1796 7.864 10.2667 7.73333C10.4667 7.53333 10.6 7.33333 10.6667 7.06667C10.7333 6.8 10.8 6.53333 10.8 6.2C10.8 5.46667 10.4667 4.8 9.93333 4.33333C9.4 3.86667 8.73333 3.66667 7.86667 3.66667C7.53333 3.66667 7.2 3.66667 6.86667 3.73333C6.83397 3.73987 6.80064 3.74641 6.76666 3.75307C6.45423 3.81436 6.08756 3.88628 5.66667 4.06667L6.26667 5.26667C6.66667 5.13333 6.93333 5.06667 7.2 5C7.4 4.93333 7.66667 4.93333 7.93333 4.93333C8.46667 4.93333 8.86667 5.06667 9.13333 5.26667C9.33333 5.46667 9.46667 5.73333 9.46667 6.13333C9.46667 6.26667 9.46667 6.4 9.4 6.46667C9.33333 6.6 9.26667 6.73333 9.2 6.8C9.15695 6.8861 9.0861 6.9444 9.0054 7.0108C8.96113 7.04723 8.9139 7.0861 8.86667 7.13333C8.76667 7.2 8.66667 7.28333 8.56667 7.36667C8.46667 7.45 8.36667 7.53333 8.26667 7.6C8 7.8 7.73333 8 7.6 8.2C7.4 8.4 7.26667 8.6 7.2 8.86667C7.13333 9.13333 7.06667 9.46667 7.06667 9.86667V9.93333Z" fill="#70747D"/>
</svg>

