<svg width="16" height="16" viewBox="0 0 16 16" fill="none" xmlns="http://www.w3.org/2000/svg">
<path fill-rule="evenodd" clip-rule="evenodd" d="M1.87467 3.99492H14.126L12.496 1.35896H3.504L1.87467 3.99492ZM1.34667 5.35121L1.33333 6.50202C1.33333 7.09947 1.81267 7.58434 2.402 7.58434H2.47533C2.72933 7.58434 2.97 7.49415 3.16 7.3314V5.35121H1.34667ZM4.49333 7.328C4.684 7.49279 4.926 7.58434 5.182 7.58434H5.254C5.51067 7.58434 5.75333 7.49212 5.944 7.32597V5.35121H4.49333V7.328ZM7.27733 7.33275C7.46733 7.49483 7.70733 7.58434 7.96067 7.58434H8.034C8.29267 7.58434 8.53733 7.49076 8.72867 7.3219V5.35121H7.27733V7.33275ZM12.8073 7.3002C13.002 7.48262 13.2567 7.58434 13.5273 7.58434H13.6007C14.1887 7.58367 14.6667 7.09879 14.6667 6.50202V5.35121H12.8073V7.3002ZM10.062 7.33614C10.2513 7.49618 10.4907 7.58434 10.7427 7.58434H10.7453H10.82C11.0607 7.58434 11.2893 7.50297 11.474 7.35649V5.35121H10.062V7.33614ZM10.7413 8.94064C10.25 8.94064 9.78067 8.79077 9.38733 8.51612C8.994 8.79077 8.52533 8.94064 8.034 8.94064H7.96067C7.46933 8.94064 7.00067 8.79077 6.60733 8.51612C6.214 8.79077 5.74533 8.94064 5.254 8.94064H5.182C4.69067 8.94064 4.222 8.79077 3.82867 8.51612C3.43533 8.79077 2.96667 8.94064 2.47533 8.94064H2.402C2.26518 8.94064 2.13098 8.92895 2.00033 8.90652V14.6437H5.33367V10.1734C5.33367 9.79835 5.63233 9.49522 6.00033 9.49522H9.39233C9.761 9.49522 10.059 9.79835 10.059 10.1734V14.6437H13.891V8.92281C13.796 8.93453 13.6994 8.94059 13.6013 8.94064H13.5273C13.0353 8.94064 12.5667 8.79077 12.1733 8.51612C11.78 8.79077 11.3113 8.94064 10.8207 8.94064H10.7473H10.7413ZM0 6.50202C0 7.15487 0.254065 7.74857 0.667 8.1867V15.3219C0.667 15.6969 0.965 16 1.33367 16H14.5577C14.9263 16 15.2243 15.6969 15.2243 15.3219V8.29542C15.7009 7.84934 16 7.21027 16 6.50202V4.85142C16 4.50353 15.872 4.16445 15.6453 3.9054L13.4273 0.318009C13.292 0.0996464 13.0533 -0.0197073 12.8167 0.00267153H12.802H3.216C3.18867 0.00267153 3.162 0.00402782 3.13533 0.00741855C2.894 -0.00343179 2.69533 0.119313 2.56867 0.324791L0.355333 3.9054C0.128667 4.16445 0 4.50353 0 4.85142V6.50202ZM8.72567 14.4674H6.667V10.8515H8.72567V14.4674Z" fill="#707174"/>
</svg>

