<svg width="16" height="16" viewBox="0 0 16 16" fill="none" xmlns="http://www.w3.org/2000/svg">
<path fill-rule="evenodd" clip-rule="evenodd" d="M3.66667 14.6668H7.33333V7.59479H3.66667V14.6668ZM8.12733 1.54345L13.5513 6.26145H2.5L8.12733 1.54345ZM8.66667 14.6668H12.3193V7.59479H8.66667V14.6668ZM15.3333 14.6668H13.6527V7.59479H15.3307C15.3393 7.59479 15.346 7.59012 15.3547 7.58945C15.4053 7.58812 15.4527 7.57279 15.502 7.56012C15.5367 7.55079 15.5727 7.54679 15.6047 7.53279C15.6467 7.51412 15.6813 7.48279 15.7193 7.45545C15.7513 7.43145 15.786 7.41212 15.8133 7.38279C15.82 7.37545 15.83 7.37279 15.8367 7.36479C15.8647 7.33279 15.8767 7.29412 15.8973 7.25812C15.9153 7.22745 15.936 7.20012 15.9493 7.16679C15.972 7.10812 15.98 7.04812 15.9853 6.98612C15.9873 6.96612 15.9973 6.94879 15.9973 6.92812C15.9973 6.92279 15.9947 6.91879 15.9947 6.91345C15.9933 6.84812 15.9767 6.78545 15.956 6.72279C15.9493 6.70145 15.948 6.67945 15.9393 6.65945C15.918 6.61145 15.8833 6.57079 15.8507 6.52812C15.8293 6.50079 15.8127 6.47079 15.788 6.44679C15.7807 6.44012 15.778 6.43079 15.7707 6.42479L8.57333 0.164119C8.32533 -0.0512147 7.95867 -0.0552147 7.70733 0.155452L0.238 6.41679C0.228667 6.42479 0.224667 6.43612 0.216 6.44479C0.191333 6.46745 0.175333 6.49545 0.154 6.52212C0.12 6.56545 0.086 6.60745 0.064 6.65612C0.054 6.67745 0.052 6.70145 0.0446667 6.72345C0.0246667 6.78479 0.00866667 6.84545 0.00666667 6.91012C0.00666667 6.91612 0.00333333 6.92145 0.00333333 6.92812C0.00333333 6.94745 0.0126667 6.96412 0.0146667 6.98412C0.02 7.04545 0.0286667 7.10479 0.0506667 7.16345C0.0626667 7.19479 0.0813333 7.22079 0.0973333 7.24945C0.117333 7.28479 0.128667 7.32412 0.155333 7.35612C0.164 7.36612 0.176 7.36879 0.184 7.37812C0.222 7.41945 0.269333 7.44812 0.316667 7.47879C0.346 7.49745 0.371333 7.52345 0.403333 7.53745C0.472 7.56745 0.548667 7.58079 0.627333 7.58612C0.640667 7.58679 0.653333 7.59479 0.666667 7.59479C0.667333 7.59479 0.668 7.59412 0.668667 7.59412C0.669333 7.59412 0.669333 7.59479 0.67 7.59479H2.33333V14.6668H0.666667C0.298667 14.6668 0 14.9648 0 15.3335C0 15.7021 0.298667 16.0001 0.666667 16.0001H15.3333C15.702 16.0001 16 15.7021 16 15.3335C16 14.9648 15.702 14.6668 15.3333 14.6668V14.6668Z" fill="#707174"/>
</svg>

