<svg width="14" height="14" viewBox="0 0 14 14" fill="none" xmlns="http://www.w3.org/2000/svg">
<g clip-path="url(#clip0_682_108443)">
<path d="M10.7913 6.70829C11.1135 6.70829 11.3747 6.44713 11.3747 6.12496C11.3747 5.80279 11.1135 5.54163 10.7913 5.54163C10.4692 5.54163 10.208 5.80279 10.208 6.12496C10.208 6.44713 10.4692 6.70829 10.7913 6.70829Z" fill="#111827"/>
<path d="M3.79199 2.04167V0.875H10.792V2.04167" stroke="#111827" stroke-miterlimit="10" stroke-linecap="square"/>
<path d="M3.79167 10.7916H0.875V6.12496C0.875 5.50612 1.12083 4.91263 1.55842 4.47504C1.996 4.03746 2.58949 3.79163 3.20833 3.79163H11.375C11.9938 3.79163 12.5873 4.03746 13.0249 4.47504C13.4625 4.91263 13.7083 5.50612 13.7083 6.12496V10.7916H10.7917" stroke="#111827" stroke-miterlimit="10" stroke-linecap="square"/>
<path d="M10.792 8.45837H3.79199V13.7084H10.792V8.45837Z" stroke="#111827" stroke-miterlimit="10" stroke-linecap="square"/>
</g>
<defs>
<clipPath id="clip0_682_108443">
<rect width="14" height="14" fill="white"/>
</clipPath>
</defs>
</svg>

