<svg width="16" height="16" viewBox="0 0 16 16" fill="none" xmlns="http://www.w3.org/2000/svg">
<g clip-path="url(#clip0_682_109422)">
<path d="M1 4V2C1 1.73478 1.10536 1.48043 1.29289 1.29289C1.48043 1.10536 1.73478 1 2 1H4" stroke="white" stroke-linecap="square" stroke-linejoin="round"/>
<path d="M15 4V2C15 1.73478 14.8946 1.48043 14.7071 1.29289C14.5196 1.10536 14.2652 1 14 1H12" stroke="white" stroke-linecap="square" stroke-linejoin="round"/>
<path d="M1 12V14C1 14.2652 1.10536 14.5196 1.29289 14.7071C1.48043 14.8946 1.73478 15 2 15H4" stroke="white" stroke-linecap="square" stroke-linejoin="round"/>
<path d="M15 12V14C15 14.2652 14.8946 14.5196 14.7071 14.7071C14.5196 14.8946 14.2652 15 14 15H12" stroke="white" stroke-linecap="square" stroke-linejoin="round"/>
<path d="M4 7.79491L6.8 10.6667L12 5.33337" stroke="white" stroke-miterlimit="10" stroke-linecap="square"/>
</g>
<defs>
<clipPath id="clip0_682_109422">
<rect width="16" height="16" fill="white"/>
</clipPath>
</defs>
</svg>

