<svg width="16" height="16" viewBox="0 0 16 16" fill="none" xmlns="http://www.w3.org/2000/svg">
<path fill-rule="evenodd" clip-rule="evenodd" d="M0.667333 15.7514H15.3327C15.7013 15.7514 16 15.4647 16 15.1108C16 14.7562 15.7013 14.4701 15.3327 14.4701H1.33467V1.30727C1.33467 0.953346 1.03667 0.666626 0.667333 0.666626C0.298667 0.666626 0 0.953346 0 1.30727V15.1108C0 15.4647 0.298667 15.7514 0.667333 15.7514ZM14.5492 4.37722C14.2499 4.37722 13.9779 4.18266 13.9019 3.89082L13.784 3.43609L10.3777 9.55706C10.2884 9.71834 10.1317 9.83482 9.9464 9.8777C9.76373 9.92058 9.56707 9.88666 9.40973 9.78298L6.3664 7.7657L3.69773 12.519C3.57707 12.7334 3.34773 12.8556 3.10973 12.8556C3.00307 12.8556 2.8944 12.8313 2.79373 12.7788C2.46907 12.6111 2.34773 12.2227 2.52307 11.911L5.54573 6.52794C5.63507 6.3673 5.79173 6.2521 5.9764 6.20858C6.16307 6.16698 6.35573 6.2009 6.51173 6.30458L9.5524 8.31994L12.5865 2.86931L12.1812 2.96602C11.8232 3.04602 11.4619 2.8425 11.3725 2.49882C11.2839 2.15514 11.5012 1.80826 11.8592 1.7225L14.5499 1.08058L15.1979 3.5817C15.2865 3.92538 15.0685 4.2729 14.7105 4.35866C14.6565 4.37082 14.6025 4.37722 14.5492 4.37722Z" fill="#70747D"/>
</svg>

