<svg width="16" height="16" viewBox="0 0 16 16" fill="none" xmlns="http://www.w3.org/2000/svg">
<path fill-rule="evenodd" clip-rule="evenodd" d="M0 3.66667C0 4.06667 0.266667 4.33333 0.666667 4.33333C1.06667 4.33333 1.33333 4.06667 1.33333 3.66667V2.33333C1.33333 1.8 1.8 1.33333 2.4 1.33333H3.73333C4.13333 1.33333 4.4 1.06667 4.4 0.666667C4.4 0.266667 4.13333 0 3.73333 0H2.4C1.06667 0 0 1.06667 0 2.33333V3.66667ZM10.6667 4.66667H3.33333V3.33333H10.6667V4.66667ZM3.33333 8.66667H12.6667V7.33333H3.33333V8.66667ZM3.33333 12.6667H8.66667V11.3333H3.33333V12.6667ZM3.86667 16H2.4C1.06667 16 0 14.9333 0 13.6667V12.3333C0 11.9333 0.266667 11.6667 0.666667 11.6667C1.06667 11.6667 1.33333 11.9333 1.33333 12.3333V13.6667C1.33333 14.2 1.8 14.6667 2.4 14.6667H3.86667C4.26667 14.6667 4.53333 14.9333 4.53333 15.3333C4.53333 15.7333 4.26667 16 3.86667 16ZM15.3333 4.33333C14.9333 4.33333 14.6667 4.06667 14.6667 3.66667V2.33333C14.6667 1.8 14.2 1.33333 13.6 1.33333H12.2667C11.8667 1.33333 11.6 1.06667 11.6 0.666667C11.6 0.266667 11.8667 0 12.2667 0H13.6C14.9333 0 16 1.06667 16 2.33333V3.66667C16 4 15.7333 4.33333 15.3333 4.33333ZM12.4 16H13.6C14.9333 16 16 14.9333 16 13.6667V12.2667C16 11.8667 15.7333 11.6 15.3333 11.6C14.9333 11.6 14.6667 11.8667 14.6667 12.2667V13.6667C14.6667 14.2 14.2 14.6667 13.6 14.6667H12.4C12 14.6667 11.7333 14.9333 11.7333 15.3333C11.7333 15.7333 12 16 12.4 16Z" fill="#111827"/>
</svg>

